<svg width="19" height="19" viewBox="0 0 19 19" fill="none" xmlns="http://www.w3.org/2000/svg">
<path fill-rule="evenodd" clip-rule="evenodd" d="M5.62035 2.27337H13.8161C15.6613 2.27337 17.1642 3.77524 17.1642 5.62056V13.7737C17.1642 15.6191 15.6624 17.1209 13.8161 17.1209H5.62035C3.77514 17.1209 2.27336 15.6191 2.27336 13.7737V5.62056C2.27336 3.77524 3.77514 2.27337 5.62035 2.27337ZM9.69725 6.47861H9.74032C11.4983 6.47861 12.9581 7.93741 12.9581 9.69659C12.9581 11.4988 11.4994 12.9576 9.74032 12.9576H9.69725C7.93706 12.9576 6.47835 11.4988 6.47835 9.69659C6.47835 7.93741 7.93706 6.47861 9.69725 6.47861ZM9.69725 4.80445H9.74032C12.4005 4.80445 14.6322 7.03629 14.6322 9.69659C14.6322 12.4 12.4005 14.5887 9.74032 14.5887H9.69725C7.03712 14.5887 4.84849 12.4011 4.84849 9.69659C4.84849 7.03629 7.03712 4.80445 9.69725 4.80445ZM14.5449 3.86026C15.1037 3.86026 15.5752 4.33292 15.5752 4.8906C15.5752 5.44827 15.1037 5.9198 14.5449 5.9198C13.9453 5.9198 13.5169 5.44827 13.5169 4.8906C13.5169 4.33292 13.9464 3.86026 14.5449 3.86026ZM5.57728 0.727295H13.8592C16.5193 0.727295 18.7079 2.91606 18.7079 5.57636V13.8157C18.7079 16.4771 16.5204 18.6647 13.8592 18.6647H5.57728C2.91715 18.6647 0.728516 16.476 0.728516 13.8157V5.57636C0.728516 2.91606 2.91715 0.727295 5.57728 0.727295Z" fill="#44546A"/>
</svg>
