<svg width="21" height="15" viewBox="0 0 21 15" fill="none" xmlns="http://www.w3.org/2000/svg">
<path fill-rule="evenodd" clip-rule="evenodd" d="M20.8718 12.1566V1.98955C20.8718 0.91778 19.9994 0.0454102 18.9277 0.0454102H2.89873C1.82696 0.0454102 0.95459 0.91778 0.95459 1.98955V12.1566C0.95459 13.2284 1.82696 14.1008 2.89873 14.1008H18.9277C19.9994 14.1008 20.8718 13.2284 20.8718 12.1566ZM19.2732 12.1566C19.2732 12.347 19.118 12.5022 18.9277 12.5022H2.89873C2.70839 12.5022 2.55318 12.347 2.55318 12.1566V2.45406L10.4158 8.69773C10.562 8.81329 10.7376 8.87108 10.9132 8.87108C11.0888 8.87108 11.2655 8.81329 11.4106 8.69773L19.2732 2.45406V12.1566ZM10.9121 7.05156L17.7222 1.644H4.10192L10.9121 7.05156Z" fill="#44546A"/>
</svg>
