<svg width="19" height="19" viewBox="0 0 19 19" fill="none" xmlns="http://www.w3.org/2000/svg">
<path fill-rule="evenodd" clip-rule="evenodd" d="M4.05117 16.6633L5.3253 16.4354L6.10067 16.2994C7.19343 16.8911 8.37688 17.2108 9.69862 17.2108C15.6 17.2108 19.9302 10.3754 15.193 4.20307C9.02075 -0.535259 2.18531 3.79612 2.18531 9.69749C2.18531 11.2006 2.64101 12.5666 3.36876 13.75L3.27807 14.4335L3.09557 15.7995L2.95954 16.8469L4.05117 16.6644V16.6633ZM9.69749 0.727539C14.6603 0.727539 18.6663 4.73471 18.6663 9.69749C18.6663 14.6603 14.6603 18.6674 9.69749 18.6674C8.33154 18.6674 7.05627 18.3942 5.91816 17.8479L1.13676 18.6674L1.77496 13.9314L1.72848 13.8407C1.09142 12.6119 0.727539 11.2006 0.727539 9.69749C0.727539 4.73471 4.73471 0.727539 9.69749 0.727539ZM6.50989 5.59963C7.01206 5.28109 7.33059 5.50781 7.5131 6.00885L7.96879 7.1923C7.96879 7.1923 8.28733 7.82936 7.46662 8.46756C7.33173 8.55825 7.33173 8.55825 7.37594 8.7861C7.55844 9.33248 8.28619 10.9716 10.61 12.2469C10.8379 12.3829 10.8832 12.3829 11.1111 12.2015C11.2924 12.019 11.5203 11.7912 11.7016 11.6098C12.112 11.2459 12.3398 11.1088 12.7037 11.382C12.9769 11.5645 13.2512 11.7912 13.5233 11.9737C13.7965 12.2015 14.2522 12.4747 13.7965 13.0211L13.3861 13.5222C12.7955 14.251 12.2945 14.2964 11.5191 14.1139C8.56052 13.3397 6.37499 11.2459 5.41826 8.28506C5.09972 7.14695 5.55429 6.19022 6.51102 5.59849L6.50989 5.59963Z" fill="#44546A"/>
</svg>
