<svg width="19" height="15" viewBox="0 0 19 15" fill="none" xmlns="http://www.w3.org/2000/svg">
<path fill-rule="evenodd" clip-rule="evenodd" d="M9.50565 4.60588C8.78022 0.780358 13.381 -1.49569 16.0924 1.26436C16.0924 1.26436 17.3029 0.925444 18.3684 0.247618C18.3684 0.247618 17.9807 1.55453 16.6727 2.37744C16.6727 2.37744 18.1258 2.18362 18.756 1.79596C18.756 1.79596 18.1258 3.10288 16.964 3.58801C17.5942 12.3533 8.15113 17.6795 0.501221 13.3213C0.501221 13.3213 4.278 13.5151 5.87509 11.6754C5.87509 11.6754 3.55144 11.8693 2.38848 9.06049C2.38848 9.06049 3.26013 9.3994 4.13178 8.96301C4.13178 8.96301 1.41935 8.52775 1.17791 5.28257C1.17791 5.28257 2.04843 5.9604 3.01643 5.71783C3.01643 5.71783 0.0149543 3.92579 1.70952 0.681744C1.70952 0.681744 4.90596 4.74983 9.50565 4.60361V4.60588Z" fill="#44546A"/>
</svg>
